<svg xmlns="http://www.w3.org/2000/svg" width="43" height="43" viewBox="0 0 43 43">
  <g id="Group_11" data-name="Group 11" transform="translate(-1635 -866)">
    <g id="black" transform="translate(1659.947 806.846)">
      <g id="linkedin" transform="translate(-12.947 71.154)">
        <path id="Path_28" data-name="Path 28" d="M3.876,17.3V5.3H.167v12Zm0-16.251a1.824,1.824,0,0,0-1.9-1.891A1.83,1.83,0,0,0,.053,1.045,1.819,1.819,0,0,0,1.931,2.937h.022A1.83,1.83,0,0,0,3.876,1.045ZM9.926,17.3V10.46a2.781,2.781,0,0,1,.134-.993,2.227,2.227,0,0,1,2.088-1.488,2.212,2.212,0,0,1,2.4,2.481V17.3h3.733V10.277c0-3.76-2.007-5.51-4.684-5.51A4.052,4.052,0,0,0,9.9,6.83l.027-1.6H6.2c.054,1.149,0,12.071,0,12.071Z" transform="translate(-0.053 0.846)" fill="#fff" fill-rule="evenodd"/>
      </g>
    </g>
    <g id="Rectangle_9" data-name="Rectangle 9" transform="translate(1635 866)" fill="none" stroke="#fff" stroke-width="3">
      <rect width="43" height="43" rx="12" stroke="none"/>
      <rect x="1.5" y="1.5" width="40" height="40" rx="10.5" fill="none"/>
    </g>
  </g>
</svg>
