<svg xmlns="http://www.w3.org/2000/svg" width="43" height="43" viewBox="0 0 43 43">
  <g id="Group_31" data-name="Group 31" transform="translate(-262 -104)">
    <g id="Page-1" transform="translate(260 101.5)">
      <g id="Twitter" transform="translate(14 15.5)">
        <path id="Oval-1" d="M23.437,19.965l.042.726-.7-.089a11.24,11.24,0,0,1-6.684-3.437l-.927-.963-.239.711A4.419,4.419,0,0,0,15.8,21.3c.562.622.435.711-.534.341-.337-.119-.632-.207-.66-.163a5.5,5.5,0,0,0,.506,1.985,4.627,4.627,0,0,0,1.924,1.9l.688.341-.814.015c-.786,0-.814.015-.73.326A4.319,4.319,0,0,0,18.8,28.47l.871.311-.758.474a7.65,7.65,0,0,1-3.764,1.1A3.988,3.988,0,0,0,14,30.47a10.486,10.486,0,0,0,2.71,1.3,11.411,11.411,0,0,0,9.212-1.1A12.749,12.749,0,0,0,30.6,24.928a15.869,15.869,0,0,0,.955-4.445c0-.682.042-.77.829-1.585a9.552,9.552,0,0,0,.983-1.141c.14-.282.126-.282-.59-.03-1.194.444-1.362.385-.772-.282a4.347,4.347,0,0,0,.955-1.585c0-.044-.211.03-.449.163a7.637,7.637,0,0,1-1.236.5l-.758.252-.688-.489a5.631,5.631,0,0,0-1.194-.652,4.6,4.6,0,0,0-2.458.059,4.246,4.246,0,0,0-2.738,4.267Zm0,0" transform="translate(-14 -15.5)" fill="#fff" fill-rule="evenodd"/>
      </g>
    </g>
    <g id="Rectangle_9" data-name="Rectangle 9" transform="translate(262 104)" fill="none" stroke="#fff" stroke-width="3">
      <rect width="43" height="43" rx="12" stroke="none"/>
      <rect x="1.5" y="1.5" width="40" height="40" rx="10.5" fill="none"/>
    </g>
  </g>
</svg>
