<svg xmlns="http://www.w3.org/2000/svg" width="109.31" height="153.848" viewBox="0 0 109.31 153.848">
  <g id="Group_38" data-name="Group 38" transform="translate(-424.538 -72.299)">
    <ellipse id="Ellipse_23" data-name="Ellipse 23" cx="54.655" cy="31.695" rx="54.655" ry="31.695" transform="translate(424.538 162.757)" fill="#2f3331"/>
    <rect id="Rectangle_60" data-name="Rectangle 60" width="109.31" height="90.517" transform="translate(424.538 103.995)" fill="#2f3331"/>
    <rect id="Rectangle_61" data-name="Rectangle 61" width="7.246" height="38.625" transform="translate(490.697 125.254)" fill="#1e1b19"/>
    <rect id="Rectangle_62" data-name="Rectangle 62" width="7.246" height="38.625" transform="translate(432.563 101.524)" fill="#1e1b19"/>
    <rect id="Rectangle_63" data-name="Rectangle 63" width="7.246" height="38.625" transform="translate(466.553 161.065)" fill="#1e1b19"/>
    <rect id="Rectangle_64" data-name="Rectangle 64" width="7.246" height="38.625" transform="translate(506.872 150.798)" fill="#1e1b19"/>
    <rect id="Rectangle_65" data-name="Rectangle 65" width="7.246" height="38.625" transform="translate(431.519 163.879)" fill="#1e1b19"/>
    <rect id="Rectangle_66" data-name="Rectangle 66" width="7.246" height="11.549" transform="translate(453.572 143.454)" fill="#1e1b19"/>
    <rect id="Rectangle_67" data-name="Rectangle 67" width="7.246" height="9.182" transform="translate(507.956 204.87)" fill="#1e1b19"/>
    <rect id="Rectangle_68" data-name="Rectangle 68" width="7.246" height="9.182" transform="translate(472.432 133.39)" fill="#1e1b19"/>
    <rect id="Rectangle_69" data-name="Rectangle 69" width="7.246" height="9.182" transform="translate(468.809 212.45)" fill="#1e1b19"/>
    <rect id="Rectangle_70" data-name="Rectangle 70" width="7.246" height="16.439" transform="translate(487.074 183.25)" fill="#1e1b19"/>
    <rect id="Rectangle_71" data-name="Rectangle 71" width="7.246" height="8.709" transform="translate(519.423 129.414)" fill="#1e1b19"/>
    <rect id="Rectangle_72" data-name="Rectangle 72" width="7.246" height="8.709" transform="translate(446.326 176.023)" fill="#1e1b19"/>
    <ellipse id="Ellipse_24" data-name="Ellipse 24" cx="54.655" cy="31.695" rx="54.655" ry="31.695" transform="translate(424.538 72.299)" fill="#b39278"/>
    <ellipse id="Ellipse_25" data-name="Ellipse 25" cx="35.063" cy="20.334" rx="35.063" ry="20.334" transform="translate(444.13 83.661)" fill="#e56f49"/>
    <ellipse id="Ellipse_26" data-name="Ellipse 26" cx="15.127" cy="8.773" rx="15.127" ry="8.773" transform="translate(464.065 95.222)" fill="#b39278"/>
    <rect id="Rectangle_73" data-name="Rectangle 73" width="3.623" height="38.625" transform="translate(530.225 120.837)" fill="#1e1b19"/>
    <rect id="Rectangle_74" data-name="Rectangle 74" width="3.623" height="8.709" transform="translate(424.538 144.869)" fill="#1e1b19"/>
    <path id="Path_79" data-name="Path 79" d="M512.684,172.257a20.392,20.392,0,0,0-3.556-11.249v22.5A20.4,20.4,0,0,0,512.684,172.257Z" transform="translate(21.164 22.194)" fill="#363a3c"/>
    <path id="Path_80" data-name="Path 80" d="M503.332,154.559V192.79a32.253,32.253,0,0,0,7.246-7.669V154.559Z" transform="translate(19.714 20.581)" fill="#1e1b19"/>
    <path id="Path_81" data-name="Path 81" d="M440.209,176.446V192.7a64.982,64.982,0,0,0,7.246,2.973v-19.23Z" transform="translate(3.921 26.057)" fill="#1e1b19"/>
    <path id="Path_82" data-name="Path 82" d="M476.4,188.151V196.6q3.719-.407,7.246-1.1v-7.356Z" transform="translate(12.975 28.985)" fill="#1e1b19"/>
  </g>
</svg>
