<svg xmlns="http://www.w3.org/2000/svg" width="109.31" height="153.848" viewBox="0 0 109.31 153.848">
  <g id="Group_37" data-name="Group 37" transform="translate(-299.446 -72.372)">
    <ellipse id="Ellipse_20" data-name="Ellipse 20" cx="54.655" cy="31.695" rx="54.655" ry="31.695" transform="translate(299.446 162.829)" fill="#312e25"/>
    <rect id="Rectangle_47" data-name="Rectangle 47" width="109.309" height="90.516" transform="translate(299.446 104.067)" fill="#312e25"/>
    <rect id="Rectangle_48" data-name="Rectangle 48" width="7.246" height="36.262" transform="translate(303.549 149.616)" fill="#4d4d3e"/>
    <rect id="Rectangle_49" data-name="Rectangle 49" width="7.246" height="38.624" transform="translate(359.573 144.698)" fill="#4d4d3e"/>
    <rect id="Rectangle_50" data-name="Rectangle 50" width="7.246" height="36.262" transform="translate(384.552 155.95)" fill="#4d4d3e"/>
    <rect id="Rectangle_51" data-name="Rectangle 51" width="7.246" height="36.262" transform="translate(334.598 129.227)" fill="#4d4d3e"/>
    <rect id="Rectangle_52" data-name="Rectangle 52" width="7.246" height="36.262" transform="translate(398.826 108.657)" fill="#4d4d3e"/>
    <rect id="Rectangle_53" data-name="Rectangle 53" width="7.246" height="11.17" transform="translate(338.221 180.96)" fill="#4d4d3e"/>
    <rect id="Rectangle_54" data-name="Rectangle 54" width="7.246" height="8.02" transform="translate(319.073 145.606)" fill="#4d4d3e"/>
    <rect id="Rectangle_55" data-name="Rectangle 55" width="7.246" height="11.17" transform="translate(377.306 128.258)" fill="#4d4d3e"/>
    <rect id="Rectangle_56" data-name="Rectangle 56" width="7.246" height="11.17" transform="translate(390.174 199.173)" fill="#4d4d3e"/>
    <rect id="Rectangle_57" data-name="Rectangle 57" width="7.246" height="7.318" transform="translate(307.172 197.44)" fill="#4d4d3e"/>
    <path id="Path_75" data-name="Path 75" d="M387.93,173.183V157.909h-5.242v28.762a21.355,21.355,0,0,0,5.24-13.488Z" transform="translate(20.826 21.4)" fill="#4d4d3e"/>
    <path id="Path_76" data-name="Path 76" d="M335.458,179.349v19.605c2.368.244,4.783.4,7.246.466V179.349Z" transform="translate(9.01 26.764)" fill="#4d4d3e"/>
    <path id="Path_77" data-name="Path 77" d="M357.239,170.126v29.948c2.5-.494,4.922-1.089,7.246-1.778v-28.17Z" transform="translate(14.459 24.457)" fill="#4d4d3e"/>
    <path id="Path_78" data-name="Path 78" d="M315.909,168.229v27.085a66.344,66.344,0,0,0,7.246,2.839V168.229Z" transform="translate(4.119 23.982)" fill="#4d4d3e"/>
    <rect id="Rectangle_58" data-name="Rectangle 58" width="5.509" height="33.986" transform="translate(299.446 104.067)" fill="#4d4d3e"/>
    <rect id="Rectangle_59" data-name="Rectangle 59" width="3.623" height="8.02" transform="translate(405.133 157.469)" fill="#4d4d3e"/>
    <ellipse id="Ellipse_21" data-name="Ellipse 21" cx="54.655" cy="31.695" rx="54.655" ry="31.695" transform="translate(299.446 72.372)" fill="#b7ab87"/>
    <ellipse id="Ellipse_22" data-name="Ellipse 22" cx="30.451" cy="17.659" rx="30.451" ry="17.659" transform="translate(323.65 86.408)" fill="#a4825d"/>
  </g>
</svg>
