<svg xmlns="http://www.w3.org/2000/svg" width="109.31" height="153.843" viewBox="0 0 109.31 153.843">
  <g id="Group_36" data-name="Group 36" transform="translate(-174.498 -72.348)">
    <ellipse id="Ellipse_16" data-name="Ellipse 16" cx="54.655" cy="31.695" rx="54.655" ry="31.695" transform="translate(174.498 162.725)" fill="#311a10"/>
    <rect id="Rectangle_37" data-name="Rectangle 37" width="109.31" height="90.517" transform="translate(174.498 104.044)" fill="#311a10"/>
    <rect id="Rectangle_38" data-name="Rectangle 38" width="6.943" height="35.213" transform="translate(185.281 139.541)" fill="#54321d"/>
    <path id="Path_67" data-name="Path 67" d="M262.884,99.8a22.557,22.557,0,0,1-5.561,11.542v5.555h5.762V99.8Z" transform="translate(20.722 6.868)" fill="#54321d"/>
    <path id="Path_68" data-name="Path 68" d="M220.927,176.831v23.22c2.463-.088,4.883-.266,7.246-.538V176.831Z" transform="translate(11.616 26.141)" fill="#54321d"/>
    <rect id="Rectangle_39" data-name="Rectangle 39" width="7.246" height="31.363" transform="translate(271.843 157.636)" fill="#54321d"/>
    <rect id="Rectangle_40" data-name="Rectangle 40" width="7.246" height="38.52" transform="translate(250.687 165.691)" fill="#54321d"/>
    <rect id="Rectangle_41" data-name="Rectangle 41" width="7.246" height="17.096" transform="translate(220.53 183.24)" fill="#54321d"/>
    <rect id="Rectangle_42" data-name="Rectangle 42" width="7.246" height="9.76" transform="translate(202.403 202.972)" fill="#54321d"/>
    <rect id="Rectangle_43" data-name="Rectangle 43" width="3.27" height="9.76" transform="translate(280.538 139.541)" fill="#54321d"/>
    <path id="Path_69" data-name="Path 69" d="M174.5,165.392h4.14V150.458H174.5" transform="translate(0 19.542)" fill="#54321d"/>
    <path id="Path_70" data-name="Path 70" d="M184.115,166.9v23.822c2.858,1.883,4.771,3.359,7.246,4.323V166.9Z" transform="translate(2.406 23.657)" fill="#54321d"/>
    <rect id="Rectangle_44" data-name="Rectangle 44" width="7.246" height="36.262" transform="translate(206.026 141.358)" fill="#54321d"/>
    <path id="Path_71" data-name="Path 71" d="M238.7,139.794h7.245V118.2a69.06,69.06,0,0,1-7.245,2.635Z" transform="translate(16.063 11.472)" fill="#54321d"/>
    <rect id="Rectangle_45" data-name="Rectangle 45" width="7.246" height="9.76" transform="translate(240.498 151.35)" fill="#54321d"/>
    <path id="Path_72" data-name="Path 72" d="M192.3,127.051h7.246V120.83a69.986,69.986,0,0,1-7.246-2.557Z" transform="translate(4.453 11.49)" fill="#54321d"/>
    <rect id="Rectangle_46" data-name="Rectangle 46" width="4.443" height="17.096" transform="translate(174.498 120.793)" fill="#54321d"/>
    <path id="Path_73" data-name="Path 73" d="M246.566,175.352v17.555a50.37,50.37,0,0,0,7.246-4.349V175.352Z" transform="translate(18.031 25.771)" fill="#54321d"/>
    <path id="Path_74" data-name="Path 74" d="M215.881,123.2v38.975h7.246V123.138c-1.43.064-2.87.106-4.328.106Q217.331,123.244,215.881,123.2Z" transform="translate(10.354 12.707)" fill="#54321d"/>
    <ellipse id="Ellipse_17" data-name="Ellipse 17" cx="54.655" cy="31.695" rx="54.655" ry="31.695" transform="translate(174.498 72.348)" fill="#d2ae89"/>
    <ellipse id="Ellipse_18" data-name="Ellipse 18" cx="34.002" cy="19.718" rx="34.002" ry="19.718" transform="translate(195.151 84.325)" fill="#b37e56"/>
    <ellipse id="Ellipse_19" data-name="Ellipse 19" cx="25.158" cy="14.59" rx="25.158" ry="14.59" transform="translate(203.995 89.454)" fill="#d2ae89"/>
  </g>
</svg>
