<svg xmlns="http://www.w3.org/2000/svg" width="220.595" height="42.848" viewBox="0 0 220.595 42.848">
  <g id="Group_25" data-name="Group 25" transform="translate(-460.273 -473.911)">
    <g id="Group_21" data-name="Group 21" transform="translate(460.273 473.911)">
      <path id="Path_45" data-name="Path 45" d="M460.273,520.994l18.132-18.132,18.132,18.132Z" transform="translate(-460.273 -478.146)" fill="#1d0d13"/>
      <path id="Path_46" data-name="Path 46" d="M467.037,506.519,479.4,488.387l12.358,18.132Z" transform="translate(-461.263 -476.029)" fill="#1d0d13"/>
      <path id="Path_47" data-name="Path 47" d="M473.8,492.044l6.583-18.132,6.583,18.132Z" transform="translate(-462.252 -473.911)" fill="#1d0d13"/>
    </g>
    <g id="Group_22" data-name="Group 22" transform="translate(503.766 483.083)">
      <path id="Path_48" data-name="Path 48" d="M543.144,508.673a10.958,10.958,0,0,1-4.718-.975,10.227,10.227,0,0,1-3.481-2.629,11.691,11.691,0,0,1-2.158-3.829,14.38,14.38,0,0,1,0-9.154,11.722,11.722,0,0,1,2.158-3.83,10.246,10.246,0,0,1,3.481-2.628,11.9,11.9,0,0,1,9.434,0,10.24,10.24,0,0,1,3.481,2.628,11.719,11.719,0,0,1,2.158,3.83,14.363,14.363,0,0,1,0,9.154,11.689,11.689,0,0,1-2.158,3.829,10.221,10.221,0,0,1-3.481,2.629A10.95,10.95,0,0,1,543.144,508.673Zm0-1.949a8.256,8.256,0,0,0,3.707-.8,8.345,8.345,0,0,0,2.75-2.159,9.229,9.229,0,0,0,1.706-3.184,13.513,13.513,0,0,0,0-7.8,9.431,9.431,0,0,0-1.706-3.2,8.649,8.649,0,0,0-10.164-2.175,8.068,8.068,0,0,0-2.732,2.175,9.834,9.834,0,0,0-1.707,3.2,13.143,13.143,0,0,0,0,7.8,9.617,9.617,0,0,0,1.707,3.184,8.158,8.158,0,0,0,2.732,2.159A8.26,8.26,0,0,0,543.144,506.724Z" transform="translate(-514.264 -484.654)" fill="#1d0d13"/>
      <path id="Path_49" data-name="Path 49" d="M573.932,508.656a10.948,10.948,0,0,1-4.709-.973,10.208,10.208,0,0,1-3.475-2.623,11.671,11.671,0,0,1-2.154-3.823,14.334,14.334,0,0,1,0-9.139,11.688,11.688,0,0,1,2.154-3.823,10.231,10.231,0,0,1,3.475-2.624,11.88,11.88,0,0,1,9.418,0,10.232,10.232,0,0,1,3.475,2.624,11.706,11.706,0,0,1,2.155,3.823,14.349,14.349,0,0,1,0,9.139,11.689,11.689,0,0,1-2.155,3.823,10.209,10.209,0,0,1-3.475,2.623A10.947,10.947,0,0,1,573.932,508.656Zm0-1.947a8.23,8.23,0,0,0,3.7-.8,8.337,8.337,0,0,0,2.745-2.155,9.244,9.244,0,0,0,1.7-3.179,13.508,13.508,0,0,0,0-7.784,9.432,9.432,0,0,0-1.7-3.2,8.636,8.636,0,0,0-10.147-2.172A8.072,8.072,0,0,0,567.5,489.6a9.819,9.819,0,0,0-1.7,3.2,13.116,13.116,0,0,0,0,7.784,9.619,9.619,0,0,0,1.7,3.179,8.033,8.033,0,0,0,6.428,2.954Z" transform="translate(-518.77 -484.657)" fill="#1d0d13"/>
      <path id="Path_50" data-name="Path 50" d="M608.441,484.679v2.016H601.2v21.962h-2.449V486.695H591.52v-2.016Z" transform="translate(-522.965 -484.658)" fill="#1d0d13"/>
      <path id="Path_51" data-name="Path 51" d="M630.286,484.679v2.016h-7.237v21.962H620.6V486.695h-7.237v-2.016Z" transform="translate(-526.16 -484.658)" fill="#1d0d13"/>
      <path id="Path_52" data-name="Path 52" d="M654.317,508.657h-2.556l-2.34-6.121H637.827l-2.34,6.121h-2.555l9.5-23.978h2.377ZM643.624,487.2l-5.04,13.321h10.081Z" transform="translate(-529.022 -484.658)" fill="#1d0d13"/>
      <path id="Path_53" data-name="Path 53" d="M665.279,484.679V506.64H675.4v2.016H662.831V484.679Z" transform="translate(-533.396 -484.658)" fill="#1d0d13"/>
      <path id="Path_54" data-name="Path 54" d="M682.145,484.679h12.817v2.016H684.593v8.676h9.937v2.016h-9.937v9.253h10.477v2.016H682.145Z" transform="translate(-536.221 -484.658)" fill="#1d0d13"/>
      <path id="Path_55" data-name="Path 55" d="M716.148,502.331a5.788,5.788,0,0,1-.573,2.589,5.945,5.945,0,0,1-1.6,2,7.349,7.349,0,0,1-2.45,1.286,10.3,10.3,0,0,1-3.127.453,16.292,16.292,0,0,1-3.388-.365,13.818,13.818,0,0,1-3.041-.99l.522-1.911a15.9,15.9,0,0,0,2.85.972,12.819,12.819,0,0,0,2.988.347,6.4,6.4,0,0,0,4-1.147,3.731,3.731,0,0,0,1.493-3.128,3.871,3.871,0,0,0-.434-1.876,4.927,4.927,0,0,0-1.182-1.426,9.44,9.44,0,0,0-1.72-1.129q-.973-.5-2.016-.991-1.146-.554-2.241-1.164a10.54,10.54,0,0,1-1.946-1.373,6.311,6.311,0,0,1-1.373-1.737,4.711,4.711,0,0,1-.522-2.259,5.493,5.493,0,0,1,.556-2.519,5.347,5.347,0,0,1,1.494-1.824,6.459,6.459,0,0,1,2.207-1.095,9.832,9.832,0,0,1,2.729-.365,15.074,15.074,0,0,1,3.092.312,11.648,11.648,0,0,1,2.711.9l-.487,1.981a12.749,12.749,0,0,0-2.589-.92,11.489,11.489,0,0,0-2.693-.33,5.793,5.793,0,0,0-3.423.9,3.182,3.182,0,0,0-1.269,2.781,3.99,3.99,0,0,0,.26,1.529,3.012,3.012,0,0,0,.817,1.112,7.949,7.949,0,0,0,1.408.956q.85.469,2.033,1.059t2.4,1.234a12.553,12.553,0,0,1,2.225,1.494,7.449,7.449,0,0,1,1.65,1.964A5.269,5.269,0,0,1,716.148,502.331Z" transform="translate(-539.121 -484.658)" fill="#1d0d13"/>
      <path id="Path_56" data-name="Path 56" d="M526.794,508.657l-10.893-9.8a13.752,13.752,0,0,0,3.688-.5,9.563,9.563,0,0,0,3.023-1.44,6.682,6.682,0,0,0,2-2.3,6.55,6.55,0,0,0,.721-3.1,6.212,6.212,0,0,0-.684-2.97,6.308,6.308,0,0,0-1.873-2.143,8.446,8.446,0,0,0-2.79-1.3,13.034,13.034,0,0,0-3.4-.431h-5.365v23.978h2.448v-8.794l9.778,8.794Zm-13.128-21.962h2.808a10.54,10.54,0,0,1,2.413.27,6.562,6.562,0,0,1,2.052.846,4.252,4.252,0,0,1,1.422,1.494,4.411,4.411,0,0,1,.522,2.215,4.827,4.827,0,0,1-.522,2.286,4.7,4.7,0,0,1-1.458,1.656,7.083,7.083,0,0,1-2.232,1.026,10.469,10.469,0,0,1-2.809.359h-2.2Z" transform="translate(-511.218 -484.658)" fill="#1d0d13"/>
    </g>
    <g id="Group_23" data-name="Group 23" transform="translate(503.689 514.063)">
      <rect id="Rectangle_11" data-name="Rectangle 11" width="177.179" height="2.696" transform="translate(0 0)" fill="#1d0d13"/>
    </g>
    <g id="Group_24" data-name="Group 24" transform="translate(503.689 473.911)">
      <rect id="Rectangle_12" data-name="Rectangle 12" width="177.179" height="2.696" fill="#1d0d13"/>
    </g>
  </g>
</svg>
